<svg xmlns="http://www.w3.org/2000/svg" viewBox="0 0 174.14 48.55"><defs><style>.cls-1{fill:#3c3c3b;}</style></defs><title>Zasób 7</title><g id="Warstwa_2" data-name="Warstwa 2"><g id="Objects"><path class="cls-1" d="M92.85,13.79A27.63,27.63,0,0,0,65.31.28C53.28,2.1,44,12,41.11,23.5c-6.73-9.31-21.43-4.88-22.64,6.17-3.69-4.14-9.6-7-14.62-3.44-4.33,3-5.42,9.8-1.13,13.24.56.44,1.35-.3.81-.81-3.72-3.45-1.68-10.09,3-11.55,5.14-1.58,9.94,2.66,12.15,6.83.65,1.22,2.28.32,2.09-.87C18.72,20.48,35.55,16,40.61,27.37a1.19,1.19,0,0,0,2.16-.28c1.68-10.9,9.36-21,20.33-23.92S86.87,6.06,91.58,16.63s-.9,23.79-11.46,28.2C74.56,47.16,67.47,46.6,63,42.31c-5.38-5.11-3.48-16,4.93-16.27,1.53-.05,1.54-2.43,0-2.38-9.71.31-13.51,12.52-7.5,19.41,7,8.09,19.74,6.53,27.07-.14C95.49,35.62,98.21,23.44,92.85,13.79Z"/><path class="cls-1" d="M81.29,13.79A27.62,27.62,0,0,1,108.83.28C120.85,2.1,130.12,12,133,23.5c6.73-9.31,21.42-4.88,22.64,6.17,3.68-4.14,9.6-7,14.62-3.44,4.32,3,5.42,9.8,1.12,13.24-.56.44-1.35-.3-.8-.81,3.72-3.45,1.67-10.09-3.05-11.55-5.13-1.58-9.94,2.66-12.15,6.83-.64,1.22-2.28.32-2.08-.87,2.08-12.59-14.75-17.11-19.8-5.7a1.19,1.19,0,0,1-2.16-.28C129.69,16.19,122,6.05,111,3.17S87.27,6.06,82.55,16.63s.9,23.79,11.46,28.2c5.56,2.33,12.65,1.77,17.18-2.52,5.38-5.11,3.47-16-4.94-16.27-1.53-.05-1.53-2.43,0-2.38,9.71.31,13.51,12.52,7.51,19.41-7.05,8.09-19.75,6.53-27.08-.14C78.64,35.62,75.93,23.44,81.29,13.79Z"/></g></g></svg>