<svg xmlns="http://www.w3.org/2000/svg" viewBox="0 0 171.06 172.8"><defs><style>.cls-1{fill:#3c3c3b;}</style></defs><title>Zasób 1</title><g id="Warstwa_2" data-name="Warstwa 2"><g id="Objects"><path class="cls-1" d="M88,161.1a1,1,0,0,0-.25-1.86A74,74,0,0,0,72.56,159c-1,0-1.93,0-2.83.06a7.22,7.22,0,0,0-5.06,2.11c-10.06-3.54-19.2-9.8-27.55-16.8a78.36,78.36,0,0,1-20.84-26.93,3.83,3.83,0,0,0,.72-4.18,6.15,6.15,0,0,0-2.59-3,3.32,3.32,0,0,0-1.33-.83c-.28-.82-.55-1.65-.8-2.48A79,79,0,0,1,9.45,93.15a5.84,5.84,0,0,0,3-6.8,5.46,5.46,0,0,0-2.49-3.14A6.33,6.33,0,0,0,9,82.67a76,76,0,0,1,5.39-26.43A4.69,4.69,0,0,0,18.31,54a4.48,4.48,0,0,0-.58-5A75,75,0,0,1,34.46,27.75,78.61,78.61,0,0,1,72.76,9.21l-5.08,7.46c-.73,1.08.65,2,1.6,1.6A43.67,43.67,0,0,0,84.39,7.45a1.16,1.16,0,0,0-.51-1.91c-5-1.84-10.06-3.7-15.12-5.49a1.1,1.1,0,0,0-1.23,1.6A19.53,19.53,0,0,0,73,6.87,81.48,81.48,0,0,0,15.82,47.58l-.18-.08a5.08,5.08,0,0,0-6.42,4A3.81,3.81,0,0,0,12,55.83c-.18.45-.36.89-.53,1.34A75.59,75.59,0,0,0,6.72,82a6,6,0,0,0-2.48.23c-4,1.29-6,6.72-2.23,9.5a3.94,3.94,0,0,0,1,.51,6,6,0,0,0,3.46,1.51,4.93,4.93,0,0,0,.86,0,82.22,82.22,0,0,0,3.53,15.57c-1.67.3-3.48,1.4-3.45,3.12a1.77,1.77,0,0,0,.77,1.32,4,4,0,0,0,.59,1.79s0,0,0,.06a5.14,5.14,0,0,0,5.67,2.8A78.23,78.23,0,0,0,33,143.56c8.45,7.58,19.36,15.92,31,19.92-.7,3.15,3.43,5.53,6,6.66,4.34,1.92,9.31,2.16,14,2.06l.29.29a1,1,0,0,0,1.73-.67c.17.15.33.31.5.45.78.71,2.2-.22,1.54-1.19l-2.86-4.14A5,5,0,0,1,88,161.1ZM6.33,87.1a2,2,0,0,0-1.4.9,2.23,2.23,0,0,1,.23-1,2.39,2.39,0,0,1,1.58-.64v.13A.83.83,0,0,0,6.33,87.1Zm78.2,74.48a1,1,0,0,0-.63-.33l-.1-.28L85,161C84.81,161.19,84.67,161.39,84.53,161.58Z"/><path class="cls-1" d="M85.85,166.94,83,171.08c-.66,1,.76,1.9,1.55,1.19l.49-.45a1,1,0,0,0,1.73.67l.29-.29c4.71.1,9.69-.14,14-2.06,2.54-1.13,6.67-3.51,6-6.66,11.68-4,22.59-12.34,31-19.92a78.23,78.23,0,0,0,18.51-25.14,5.14,5.14,0,0,0,5.67-2.8s0,0,0-.06a3.88,3.88,0,0,0,.59-1.79,1.77,1.77,0,0,0,.77-1.32c0-1.72-1.78-2.82-3.45-3.12a82.22,82.22,0,0,0,3.53-15.57,4.93,4.93,0,0,0,.86,0,6,6,0,0,0,3.47-1.51,3.88,3.88,0,0,0,1-.51c3.78-2.78,1.78-8.21-2.22-9.5a6,6,0,0,0-2.49-.23,75.59,75.59,0,0,0-4.71-24.85c-.17-.45-.35-.89-.53-1.34a3.81,3.81,0,0,0,2.74-4.33,5.08,5.08,0,0,0-6.42-4l-.18.08A81.48,81.48,0,0,0,98,6.87a19.49,19.49,0,0,0,5.5-5.22A1.1,1.1,0,0,0,102.3.05c-5,1.79-10.08,3.65-15.12,5.49a1.16,1.16,0,0,0-.5,1.91,43.54,43.54,0,0,0,15.1,10.82c1,.41,2.33-.52,1.6-1.6L98.3,9.21a78.6,78.6,0,0,1,38.31,18.54A75.17,75.17,0,0,1,153.33,49a4.48,4.48,0,0,0-.58,5,4.69,4.69,0,0,0,3.93,2.21,76.2,76.2,0,0,1,5.4,26.43,6,6,0,0,0-1,.54,5.5,5.5,0,0,0-2.49,3.14,5.84,5.84,0,0,0,3,6.8A79,79,0,0,1,158.78,107c-.25.83-.52,1.66-.8,2.48a3.39,3.39,0,0,0-1.33.83,6.08,6.08,0,0,0-2.58,3,3.83,3.83,0,0,0,.71,4.18,78.24,78.24,0,0,1-20.84,26.93c-8.35,7-17.49,13.26-27.55,16.8a7.2,7.2,0,0,0-5-2.11c-.91-.06-1.86-.08-2.83-.06a74.05,74.05,0,0,0-15.18.22,1,1,0,0,0-.25,1.86A4.94,4.94,0,0,1,85.85,166.94Zm78.47-80.45v-.13a2.37,2.37,0,0,1,1.58.64,2.23,2.23,0,0,1,.23,1,2,2,0,0,0-1.39-.9A.85.85,0,0,0,164.32,86.49ZM86.09,161l1.18,0c0,.09-.08.19-.1.28a1,1,0,0,0-.64.33A5.79,5.79,0,0,0,86.09,161Z"/></g></g></svg>