<svg xmlns="http://www.w3.org/2000/svg" viewBox="0 0 179.48 179.48"><defs><style>.cls-1{fill:#3c3c3b;}</style></defs><title>colar_leaf</title><g id="Warstwa_2" data-name="Warstwa 2"><g id="Objects"><path class="cls-1" d="M29.73,144.88a76.41,76.41,0,0,1-6.94-9.62.89.89,0,0,0,.51-.31,17.17,17.17,0,0,0,3.83-14,1,1,0,0,0-1.73-.46,20.94,20.94,0,0,0-3.52,5.61.83.83,0,0,0-.15.17,5.77,5.77,0,0,0-.69,2.39,17,17,0,0,0-.43,2.77,76.43,76.43,0,0,1-4.48-9.89A18.3,18.3,0,0,0,21,111.74a1.08,1.08,0,0,0-1.56-1.21,11.17,11.17,0,0,0-5,5.81,77.64,77.64,0,0,1-1.94-8.41,20.41,20.41,0,0,0,5.32-4.18c.34-.18.68-.38,1-.55a1,1,0,0,0,.46-1.34,17.39,17.39,0,0,0,1.33-2.14c.37-.69-.26-1.81-1.12-1.46a15.75,15.75,0,0,0-6.22,4.12,18.48,18.48,0,0,0-1.36,1.74q-.35-2.91-.5-5.85c-.06-1.45-.08-2.9-.07-4.36A10,10,0,0,0,21.39,85c.07-.74-.71-1.09-1.31-1a14,14,0,0,0-8.52,4.26A92.06,92.06,0,0,1,13,77.4a10.28,10.28,0,0,0,10.47-9,1.08,1.08,0,0,0-1.07-1.07,12.26,12.26,0,0,0-7.83,3.28,93.16,93.16,0,0,1,3.34-9.79,6.16,6.16,0,0,0,4.81.86c3.17-.71,5.18-3.54,6.66-6.21A1,1,0,0,0,28.76,54a12.27,12.27,0,0,0-8.45,1.18c1.27-2.9,2.59-5.79,3.89-8.74a4.07,4.07,0,0,0,1-.22c3.65-1.42,4.24-6.94,3.29-10.15a1.08,1.08,0,0,0-1.56-.64,13.19,13.19,0,0,0-6.21,10.65.73.73,0,0,0,.74.71A71.12,71.12,0,0,0,17.62,54a11.83,11.83,0,0,0-2.37-7.54,1.09,1.09,0,0,0-1.85,0,11.29,11.29,0,0,0-1.79,7.5c.2,1.68.83,4.58,2.67,5.14a1.22,1.22,0,0,0,.87.71c-.93,2.46-1.76,5-2.48,7.53a24,24,0,0,0-3.43-5.74,1.11,1.11,0,0,0-1.72.22A10.16,10.16,0,0,0,9,74.43c0,.26,0,.52.07.77a1.11,1.11,0,0,0,.79,1,1.13,1.13,0,0,0,.63.69A98.18,98.18,0,0,0,9,91.49a1.18,1.18,0,0,0-.32.26A21.87,21.87,0,0,0,1.9,81.52,1.11,1.11,0,0,0,0,82.29,11.93,11.93,0,0,0,6.43,94c.37.34.76.67,1.18,1a.94.94,0,0,0,1.33-.22c0,1.71.06,3.42.17,5.09s.29,3.32.5,5a24.1,24.1,0,0,0-6.76-6.15,1.08,1.08,0,0,0-1.62.92c.4,4.5,3.56,9.22,8.28,10h0c.32.26.65.52,1,.76a78.71,78.71,0,0,0,3,10.8,1.09,1.09,0,0,0-.06.56,23.15,23.15,0,0,0-3.69-2.83,39.79,39.79,0,0,0-7.59-4.14c-.92-.38-1.63.84-1.22,1.59a17.77,17.77,0,0,0,5.35,6,16.77,16.77,0,0,0,3.38,1.84,8,8,0,0,0,3.65.48l.4.38a1,1,0,0,0,1.32.15q1.29,3.1,2.87,6.07l-.73-.15a20.14,20.14,0,0,0-7.62,0,1.12,1.12,0,0,0-.66,1.63c2.11,4.25,7.94,7.42,12.46,4.9a.58.58,0,0,0,.23-.26,65.86,65.86,0,0,0,6.92,8.68C29.27,147,30.47,145.75,29.73,144.88ZM19.07,86.09a6.66,6.66,0,0,1-.52,1.3,1.55,1.55,0,0,0-.36-1.16A8.49,8.49,0,0,1,19.07,86.09Zm6.36-28.83.35-.09a7.72,7.72,0,0,1-2,1.73,1.44,1.44,0,0,0-.19-.31.94.94,0,0,0-.1-.1s0,0,0,0l-.07-.06A14.23,14.23,0,0,0,25.43,57.26Zm1.29-19.12a8.13,8.13,0,0,1,0,1.1,1.21,1.21,0,0,0-.63-.57C26.32,38.49,26.51,38.31,26.72,38.14Zm-2.36,5.79a1.07,1.07,0,0,0,.34-.36l1.92-3.24a7.13,7.13,0,0,1-1,2.61,3,3,0,0,1-.9,1C24,44.37,24.19,44.17,24.36,43.93ZM13.61,53.56a9,9,0,0,1,.19-2.65c0,1.28.06,2.57.2,3.83a.74.74,0,0,0,0,.14c0,.16,0,.32,0,.48A6.43,6.43,0,0,1,13.61,53.56ZM11,72.16c-.13-1.46-.27-2.91-.4-4.36A6.23,6.23,0,0,1,11,72.16Zm-3.16,49a14.66,14.66,0,0,1-2.08-1.76c1.9,1.39,3.9,2.49,5.77,3.88A30.56,30.56,0,0,1,7.84,121.11Zm11.8,13.72a.91.91,0,0,0-.56-.31L18,134.35l-.56-.22a.9.9,0,0,0,.42-.47c.21.06.42.09.62.16a2.82,2.82,0,0,1,1.07.43l.14.22a.82.82,0,0,1,0,.28S19.65,134.8,19.64,134.83Z"/><path class="cls-1" d="M151,146.15a66.69,66.69,0,0,0,6.92-8.68.52.52,0,0,0,.23.26c4.51,2.52,10.35-.65,12.46-4.9a1.13,1.13,0,0,0-.67-1.63,20.08,20.08,0,0,0-7.61,0l-.73.15c1-2,2-4,2.87-6.07a1,1,0,0,0,1.31-.15l.4-.38a8,8,0,0,0,3.65-.48,16.85,16.85,0,0,0,3.39-1.84,17.75,17.75,0,0,0,5.34-6c.42-.75-.29-2-1.22-1.59a39.7,39.7,0,0,0-7.58,4.14,23.23,23.23,0,0,0-3.7,2.83,1.09,1.09,0,0,0-.06-.56,78.74,78.74,0,0,0,3-10.8c.33-.24.66-.5,1-.76h0c4.71-.78,7.87-5.5,8.27-10a1.07,1.07,0,0,0-1.61-.92,24.28,24.28,0,0,0-6.77,6.15c.21-1.66.39-3.31.5-5s.17-3.38.18-5.09a.93.93,0,0,0,1.32.22c.42-.32.81-.65,1.19-1a11.92,11.92,0,0,0,6.38-11.74,1.11,1.11,0,0,0-1.86-.77,21.92,21.92,0,0,0-6.76,10.23,1.23,1.23,0,0,0-.33-.26A98.18,98.18,0,0,0,169,76.92a1.14,1.14,0,0,0,.64-.69,1.12,1.12,0,0,0,.79-1l.06-.77A10.16,10.16,0,0,0,172,61.77a1.11,1.11,0,0,0-1.72-.22,23.67,23.67,0,0,0-3.43,5.74c-.73-2.55-1.56-5.07-2.49-7.53a1.19,1.19,0,0,0,.87-.71c1.85-.56,2.47-3.46,2.67-5.14a11.29,11.29,0,0,0-1.79-7.5,1.09,1.09,0,0,0-1.85,0A11.88,11.88,0,0,0,161.87,54,75.4,75.4,0,0,0,158,46.77a.72.72,0,0,0,.73-.71,13.19,13.19,0,0,0-6.21-10.65,1.07,1.07,0,0,0-1.55.64c-1,3.21-.37,8.73,3.28,10.15a4.07,4.07,0,0,0,1,.22c1.3,2.95,2.62,5.84,3.9,8.74A12.31,12.31,0,0,0,150.72,54a1,1,0,0,0-.62,1.51c1.48,2.67,3.49,5.5,6.66,6.21a6.16,6.16,0,0,0,4.81-.86,93.2,93.2,0,0,1,3.35,9.79,12.26,12.26,0,0,0-7.83-3.28A1.07,1.07,0,0,0,156,68.42a10.27,10.27,0,0,0,10.46,9,92.08,92.08,0,0,1,1.45,10.85A14,14,0,0,0,159.41,84c-.6-.09-1.38.26-1.32,1a10,10,0,0,0,10.06,8.92c0,1.46,0,2.91-.08,4.36q-.13,2.94-.5,5.85a16.93,16.93,0,0,0-1.35-1.74A15.82,15.82,0,0,0,160,98.26c-.87-.35-1.5.77-1.13,1.46a18.68,18.68,0,0,0,1.33,2.14,1,1,0,0,0,.46,1.34c.36.17.69.37,1,.55a20.41,20.41,0,0,0,5.32,4.18,77.68,77.68,0,0,1-2,8.41,11.15,11.15,0,0,0-5-5.81,1.09,1.09,0,0,0-1.57,1.21,18.37,18.37,0,0,0,4.88,9.83,76.43,76.43,0,0,1-4.48,9.89,17,17,0,0,0-.43-2.77,5.77,5.77,0,0,0-.69-2.39.61.61,0,0,0-.15-.17,21.15,21.15,0,0,0-3.51-5.61,1,1,0,0,0-1.73.46,17.13,17.13,0,0,0,3.82,14,.89.89,0,0,0,.51.31,76.41,76.41,0,0,1-6.94,9.62C149,145.75,150.21,147,151,146.15ZM161.3,86.23a1.51,1.51,0,0,0-.36,1.16,7.38,7.38,0,0,1-.53-1.3A8.68,8.68,0,0,1,161.3,86.23ZM156,58.41l-.07.06v0a.52.52,0,0,0-.11.1,1.44,1.44,0,0,0-.19.31,7.89,7.89,0,0,1-2-1.73l.35.09A14.83,14.83,0,0,0,156,58.41Zm-2.68-19.74a1.16,1.16,0,0,0-.62.57,8.11,8.11,0,0,1,0-1.1C153,38.31,153.17,38.49,153.36,38.67ZM154.79,44a3,3,0,0,1-.9-1,7.5,7.5,0,0,1-1-2.61l1.92,3.24a1.31,1.31,0,0,0,.34.36C155.29,44.17,155.49,44.37,154.79,44Zm10.64,11.4c0-.16,0-.32,0-.48s0-.09,0-.14c.14-1.26.18-2.55.2-3.83a9.3,9.3,0,0,1,.19,2.65A7.2,7.2,0,0,1,165.43,55.36Zm3.45,12.44-.39,4.36A6.23,6.23,0,0,1,168.88,67.8ZM168,123.23c1.86-1.39,3.87-2.49,5.76-3.88a14.58,14.58,0,0,1-2.07,1.76A30.56,30.56,0,0,1,168,123.23Zm-8.15,11.52a.62.62,0,0,1,0-.28c0-.08.09-.15.13-.22a2.89,2.89,0,0,1,1.07-.43c.21-.07.42-.1.62-.16a.9.9,0,0,0,.42.47l-.56.22-1.12.17a.91.91,0,0,0-.56.31Z"/><path class="cls-1" d="M33.34,151A65.38,65.38,0,0,0,42,157.94a.49.49,0,0,0-.26.23c-2.52,4.51.65,10.35,4.89,12.46a1.14,1.14,0,0,0,1.64-.67,20.29,20.29,0,0,0,0-7.61c0-.24-.09-.48-.14-.73,2,1,4,2,6.06,2.87a1,1,0,0,0,.15,1.31c.14.13.25.27.38.4a8,8,0,0,0,.49,3.65,16.37,16.37,0,0,0,1.84,3.39,17.81,17.81,0,0,0,6,5.34c.75.42,2-.29,1.59-1.22a39.7,39.7,0,0,0-4.14-7.58,23.77,23.77,0,0,0-2.82-3.7,1.07,1.07,0,0,0,.55-.06,78.74,78.74,0,0,0,10.8,3c.25.33.5.66.76,1,0,0,0,0,0,0,.78,4.71,5.5,7.87,10,8.27a1.08,1.08,0,0,0,.93-1.61,24.58,24.58,0,0,0-6.15-6.77c1.65.21,3.31.39,5,.5s3.38.17,5.1.18a.91.91,0,0,0-.22,1.32c.31.42.64.81,1,1.19a11.93,11.93,0,0,0,11.74,6.38,1.1,1.1,0,0,0,.77-1.86,21.92,21.92,0,0,0-10.23-6.76,1.06,1.06,0,0,0,.26-.33A98.18,98.18,0,0,0,102.56,169a1.17,1.17,0,0,0,.69.64,1.14,1.14,0,0,0,1,.79l.77.06A10.16,10.16,0,0,0,117.71,172a1.1,1.1,0,0,0,.22-1.72,23.3,23.3,0,0,0-5.74-3.43c2.56-.73,5.08-1.56,7.53-2.49a1.18,1.18,0,0,0,.72.87c.55,1.85,3.45,2.47,5.14,2.67a11.26,11.26,0,0,0,7.49-1.79,1.09,1.09,0,0,0,0-1.85,11.88,11.88,0,0,0-7.54-2.36,76.81,76.81,0,0,0,7.19-3.83.71.71,0,0,0,.71.73,13.16,13.16,0,0,0,10.64-6.21,1.06,1.06,0,0,0-.63-1.55c-3.22-1-8.73-.37-10.15,3.28a3.66,3.66,0,0,0-.23,1c-2.94,1.3-5.83,2.62-8.73,3.9a12.31,12.31,0,0,0,1.18-8.46,1,1,0,0,0-1.51-.62c-2.68,1.48-5.5,3.49-6.22,6.66a6.24,6.24,0,0,0,.86,4.81,93.2,93.2,0,0,1-9.79,3.35,12.27,12.27,0,0,0,3.29-7.83,1.08,1.08,0,0,0-1.07-1.07,10.26,10.26,0,0,0-9,10.46,92.36,92.36,0,0,1-10.85,1.45,14,14,0,0,0,4.25-8.52c.09-.6-.25-1.38-1-1.32a10,10,0,0,0-8.92,10.06c-1.45,0-2.91,0-4.36-.08q-2.94-.13-5.85-.5a16.93,16.93,0,0,0,1.74-1.35A16,16,0,0,0,81.23,160c.35-.87-.78-1.5-1.47-1.13a18.55,18.55,0,0,0-2.13,1.33,1,1,0,0,0-1.34.46c-.18.36-.37.69-.55,1A20.24,20.24,0,0,0,71.55,167a77.68,77.68,0,0,1-8.41-2A11.12,11.12,0,0,0,69,160a1.08,1.08,0,0,0-1.2-1.57,18.3,18.3,0,0,0-9.83,4.88,77.17,77.17,0,0,1-9.9-4.48,16.83,16.83,0,0,0,2.77-.43,5.86,5.86,0,0,0,2.4-.69,1.14,1.14,0,0,0,.17-.15,21.1,21.1,0,0,0,5.6-3.51,1,1,0,0,0-.45-1.73,17.14,17.14,0,0,0-14,3.82,1,1,0,0,0-.31.51,77.14,77.14,0,0,1-9.62-6.94C33.73,149,32.49,150.21,33.34,151ZM93.26,161.3a1.54,1.54,0,0,0-1.16-.36,7.38,7.38,0,0,1,1.3-.53A8.68,8.68,0,0,1,93.26,161.3ZM121.08,156s0,0-.07-.07h0a.48.48,0,0,0-.09-.11,1.73,1.73,0,0,0-.31-.19,7.85,7.85,0,0,1,1.72-2l-.09.35A13.75,13.75,0,0,0,121.08,156Zm19.74-2.68a1.17,1.17,0,0,0-.58-.62,8.05,8.05,0,0,1,1.1,0A7.45,7.45,0,0,1,140.82,153.36Zm-5.3,1.43a3,3,0,0,1,1-.9,7.55,7.55,0,0,1,2.62-1l-3.24,1.92a1.08,1.08,0,0,0-.36.34C135.31,155.29,135.12,155.49,135.52,154.79Zm-11.4,10.64.49,0,.13,0c1.27.14,2.55.18,3.84.2a9.39,9.39,0,0,1-2.66.19A7.31,7.31,0,0,1,124.12,165.43Zm-12.44,3.45-4.35-.39A6.2,6.2,0,0,1,111.68,168.88ZM56.25,168c1.4,1.86,2.49,3.87,3.88,5.76a15.2,15.2,0,0,1-1.75-2.07A30.58,30.58,0,0,1,56.25,168Zm-11.51-8.15a.62.62,0,0,1,.28,0l.21.13a2.73,2.73,0,0,1,.43,1.07c.07.21.11.42.17.62a.87.87,0,0,0-.47.42c-.07-.18-.15-.37-.22-.56L45,160.4a.91.91,0,0,0-.31-.56Z"/><path class="cls-1" d="M34.6,29.73a77.14,77.14,0,0,1,9.62-6.94,1,1,0,0,0,.31.51,17.18,17.18,0,0,0,14,3.83A1,1,0,0,0,59,25.4a20.89,20.89,0,0,0-5.6-3.52c-.06-.05-.11-.11-.17-.15a5.86,5.86,0,0,0-2.4-.69A16.83,16.83,0,0,0,48,20.61a77.17,77.17,0,0,1,9.9-4.48A18.24,18.24,0,0,0,67.75,21,1.08,1.08,0,0,0,69,19.45a11.13,11.13,0,0,0-5.81-5,77.64,77.64,0,0,1,8.41-1.94,20.24,20.24,0,0,0,4.19,5.32c.18.34.37.68.55,1a1,1,0,0,0,1.34.46,17.27,17.27,0,0,0,2.13,1.33c.69.37,1.82-.26,1.47-1.12a15.88,15.88,0,0,0-4.13-6.22,18.48,18.48,0,0,0-1.74-1.36q2.91-.35,5.85-.5c1.45-.06,2.91-.08,4.36-.07a10,10,0,0,0,8.92,10.05c.75.07,1.09-.71,1-1.31a14,14,0,0,0-4.25-8.52A92.34,92.34,0,0,1,102.09,13a10.27,10.27,0,0,0,9,10.47,1.08,1.08,0,0,0,1.07-1.07,12.27,12.27,0,0,0-3.29-7.83,93.16,93.16,0,0,1,9.79,3.34,6.25,6.25,0,0,0-.86,4.81c.72,3.17,3.54,5.18,6.22,6.66a1,1,0,0,0,1.51-.62,12.27,12.27,0,0,0-1.18-8.45c2.9,1.27,5.79,2.59,8.73,3.89a3.66,3.66,0,0,0,.23,1c1.42,3.65,6.93,4.24,10.15,3.29a1.07,1.07,0,0,0,.63-1.56,13.16,13.16,0,0,0-10.64-6.21.72.72,0,0,0-.71.74,72.38,72.38,0,0,0-7.19-3.83,11.83,11.83,0,0,0,7.54-2.37,1.09,1.09,0,0,0,0-1.85,11.26,11.26,0,0,0-7.49-1.79c-1.69.2-4.59.83-5.14,2.67a1.21,1.21,0,0,0-.72.87c-2.45-.93-5-1.76-7.53-2.48a23.61,23.61,0,0,0,5.74-3.43,1.1,1.1,0,0,0-.22-1.72A10.16,10.16,0,0,0,105.05,9l-.77.07a1.12,1.12,0,0,0-1,.79,1.15,1.15,0,0,0-.69.63A98.18,98.18,0,0,0,88,9a1,1,0,0,0-.26-.32A21.87,21.87,0,0,0,98,1.9,1.11,1.11,0,0,0,97.19,0,11.94,11.94,0,0,0,85.45,6.43a14.26,14.26,0,0,0-1,1.18.93.93,0,0,0,.22,1.33c-1.72,0-3.42.06-5.1.17s-3.32.29-5,.5a24.4,24.4,0,0,0,6.15-6.76,1.09,1.09,0,0,0-.93-1.62c-4.5.4-9.22,3.56-10,8.28,0,0,0,0,0,0-.26.32-.51.65-.76,1a78.71,78.71,0,0,0-10.8,3,1.07,1.07,0,0,0-.55-.06,23.69,23.69,0,0,0,2.82-3.69,39.79,39.79,0,0,0,4.14-7.59C65.07,1.2,63.85.49,63.1.9a17.84,17.84,0,0,0-6,5.35,16.29,16.29,0,0,0-1.84,3.38,8,8,0,0,0-.49,3.65c-.13.14-.24.27-.38.41A1,1,0,0,0,54.23,15c-2.06.86-4.09,1.82-6.06,2.87,0-.25.1-.5.14-.73a20.34,20.34,0,0,0,0-7.62,1.13,1.13,0,0,0-1.64-.66C42.41,11,39.24,16.8,41.76,21.32a.53.53,0,0,0,.26.23,64.58,64.58,0,0,0-8.68,6.92C32.49,29.27,33.73,30.47,34.6,29.73ZM93.4,19.07a6.66,6.66,0,0,1-1.3-.52,1.58,1.58,0,0,0,1.16-.36A8.49,8.49,0,0,1,93.4,19.07Zm28.82,6.36.09.35a7.68,7.68,0,0,1-1.72-2,1.73,1.73,0,0,0,.31-.19.81.81,0,0,0,.09-.1l0,0a.46.46,0,0,0,.07-.07A13.24,13.24,0,0,0,122.22,25.43Zm19.12,1.29a8,8,0,0,1-1.1,0,1.23,1.23,0,0,0,.58-.63C141,26.32,141.18,26.51,141.34,26.72Zm-5.78-2.36a.91.91,0,0,0,.36.34l3.24,1.92a7.18,7.18,0,0,1-2.62-1,3,3,0,0,1-1-.9C135.12,24,135.31,24.19,135.56,24.36Zm-9.64-10.75a9,9,0,0,1,2.66.19c-1.29,0-2.57.06-3.84.2,0,0-.08,0-.13,0l-.49,0A6.51,6.51,0,0,1,125.92,13.61ZM107.33,11l4.35-.4A6.2,6.2,0,0,1,107.33,11ZM58.38,7.84a15.29,15.29,0,0,1,1.75-2.08c-1.39,1.9-2.48,3.9-3.88,5.77A30.58,30.58,0,0,1,58.38,7.84ZM44.65,19.64a.91.91,0,0,0,.31-.56L45.14,18c.07-.18.15-.37.22-.56a.87.87,0,0,0,.47.42c-.06.21-.1.42-.17.62a2.67,2.67,0,0,1-.43,1.07l-.21.14a.82.82,0,0,1-.28,0A.24.24,0,0,1,44.65,19.64Z"/></g></g></svg>