<svg xmlns="http://www.w3.org/2000/svg" viewBox="0 0 68.27 141.95"><defs><style>.cls-1{fill:#3c3c3b;}</style></defs><title>coral2_left</title><g id="Warstwa_2" data-name="Warstwa 2"><g id="Objects"><path class="cls-1" d="M28.56,19.12l-.54.35c.1-.36-.36-.76-.65-.41a1,1,0,0,0-.3,1.05A62.4,62.4,0,0,0,4.33,48.27C-4.93,71.77.92,99.33,19.45,116.58a65.21,65.21,0,0,0,6,4.89c-6.89,6.12.34,15.47,5.34,20.2a1,1,0,0,0,1.59-.21c2.11-4.75,3.08-11.07.5-15.3a58.55,58.55,0,0,0,10.79,4.5c4.25,7.68,14.3,2.51,20.78,5.53A1,1,0,0,0,65.93,135c-2.14-9.38-13.23-9.85-20.58-6.71a.66.66,0,0,0-.34.29,67.55,67.55,0,0,1-12.84-5.93c4,.35,8.18,0,11,.17a1,1,0,0,0,.87-1.52c-3.73-8.73-15.29-16.5-23.25-7.55a1.86,1.86,0,0,0-.11.19,58.68,58.68,0,0,1,4.77-89.23,16.59,16.59,0,0,0,18.78,1.88.91.91,0,0,0,.42-1,11.23,11.23,0,0,0-8.88-7.3,65,65,0,0,1,13.62-5,.4.4,0,0,0,0,.15c1.68,3.88,6.19,4.11,9.78,3.12,2.27-.63,9.53-1.66,9.07-5.24C67.81,7.9,62.8,3.9,59.45,4c-4.17.14-6.69,4.48-10.07,6.47a59.12,59.12,0,0,0-11.45,3.64c2.53-3.71,3.35-9.35,6.21-12.55A.92.92,0,0,0,43.5,0,14.88,14.88,0,0,0,28.56,19.12ZM63.34,133.73c-5.64-1.19-13.14,1.29-17.45-2.44a54.09,54.09,0,0,0,8.49,1.5.85.85,0,0,0,.23-1.67c-2.26-.42-4.48-1-6.65-1.59C53.69,128.25,60.77,127.8,63.34,133.73Zm-32.22,5.46c-4.06-4-8.48-9.66-5.33-14.94.52,3,2.58,6.38,5.52,7,.69.15,1.33-.72.73-1.26-1.19-1.08-2.54-1.78-3.49-3.13a10.22,10.22,0,0,1-1.6-4C33.43,125.86,33.33,133.33,31.12,139.19Zm10.4-18.39c-3.69,0-9.26.32-13.45-.77q-2.51-1.74-4.81-3.71a17.94,17.94,0,0,1,9.19.89.84.84,0,0,0,.37.32c.8.33,1.59.66,2.4,1,1,.37,1.71-1.28.74-1.75a18.86,18.86,0,0,0-13.64-1.23l-.24-.23s.08,0,.12-.09C29,107.91,37.7,113.8,41.52,120.8ZM59.71,11.57c1.43-.12,1.48-2.29,0-2.27a55.77,55.77,0,0,0-6.07.46c3.12-2.72,6-5.7,10.06-1.68C64.94,9.29,67,11,65,12.65c-.84.68-3,.94-4.1,1.32-3.43,1.21-7.91,2.76-10.43-1A67.82,67.82,0,0,1,59.71,11.57Zm-18-9.66c-2.91,5-3.39,12.93-9.17,14.66a35.66,35.66,0,0,0,4.2-7.2c.36-.85-.79-1.6-1.28-.75-1.07,1.85-2,3.74-3.19,5.53-.58.89-1.18,1.76-1.82,2.62l-.36.47A12.93,12.93,0,0,1,41.72,1.91ZM37.15,20.34a8,8,0,0,1,4.56,3.27c.94,1.57,1,1.94-1.13,2.62A16.67,16.67,0,0,1,26.37,24c.45-.33.9-.66,1.36-1a.6.6,0,0,0,.63-.05l.14-.1a31.36,31.36,0,0,0,4.83.67c1.68.1,3.59.34,5.19-.24.52-.19.67-1.1,0-1.21a32.28,32.28,0,0,0-4.81.1c-1.3,0-2.6-.12-3.9-.25C32,20.5,34.26,19.53,37.15,20.34Z"/></g></g></svg>