<svg xmlns="http://www.w3.org/2000/svg" viewBox="0 0 151.05 38.22"><defs><style>.cls-1{fill:#3c3c3b;}</style></defs><title>Zasób 6</title><g id="Warstwa_2" data-name="Warstwa 2"><g id="Objects"><path class="cls-1" d="M80,5.41c-10.85-9.53-29.72-3-39.86,4.3C31.91,15.63,22.44,26.58,11.08,23.8,4.35,22.15.51,16.2,2.75,9.44,3.6,6.86,5.37,4.13,7.85,2.9A7.19,7.19,0,0,1,13,2.38c4.43,1.43,4.07,9.48-1.24,8.48-.77-.15-1.11,1-.33,1.18A5.68,5.68,0,0,0,18.32,6.9C18.69,2.8,14.64,0,10.86,0-.19,0-3.45,16.42,4.07,22.79c11.38,9.64,25-1.46,34.07-8.65,7.42-5.89,15.79-10,25.35-10.77S82.76,6.85,82.85,17.59c.08,10.21-10.13,17.78-19.72,18.16-6.78.26-13.42-4.94-11-12.26,2-5.79,13.14-9.66,14.27-1.13.18,1.33,2.23,1.44,2.18,0-.15-4.53-4.12-7.35-8.49-7.42-5.11-.08-9.58,4.14-10.64,9a11.85,11.85,0,0,0,7.1,13.22c5.6,2.28,12.56.52,17.63-2.29C84.43,29.23,90,14.17,80,5.41Z"/><path class="cls-1" d="M71.06,5.41c10.85-9.53,29.72-3,39.86,4.3,8.22,5.92,17.69,16.87,29.05,14.09,6.73-1.65,10.57-7.6,8.33-14.36-.85-2.58-2.62-5.31-5.1-6.54a7.19,7.19,0,0,0-5.1-.52c-4.43,1.43-4.07,9.48,1.24,8.48.77-.15,1.11,1,.33,1.18a5.68,5.68,0,0,1-6.94-5.14c-.37-4.1,3.68-6.89,7.46-6.9C151.24,0,154.5,16.42,147,22.79c-11.38,9.64-25-1.46-34.07-8.65-7.42-5.89-15.79-10-25.35-10.77S68.29,6.85,68.2,17.59C68.12,27.8,78.33,35.37,87.92,35.75c6.78.26,13.42-4.94,11-12.26-2-5.79-13.14-9.66-14.27-1.13-.18,1.33-2.23,1.44-2.18,0,.15-4.53,4.12-7.35,8.49-7.42,5.11-.08,9.58,4.14,10.64,9a11.85,11.85,0,0,1-7.1,13.22c-5.6,2.28-12.56.52-17.63-2.29C66.62,29.23,61.09,14.17,71.06,5.41Z"/></g></g></svg>