<svg xmlns="http://www.w3.org/2000/svg" viewBox="0 0 65.1 140.22"><defs><style>.cls-1{fill:#3c3c3b;}</style></defs><title>orn_left</title><g id="Warstwa_2" data-name="Warstwa 2"><g id="Objects"><path class="cls-1" d="M65,139.46c-11.88-9.7-22.46-20.11-30.78-32.35.22-.24.42-.49.62-.74h0c9.66-6.31,10-19.59,2.17-27.46a.91.91,0,0,0-1.51.4c-2.57,6.34-6.8,14.14-5.56,21-1.65-2.86-3.21-5.82-4.61-8.9a.55.55,0,0,0-.37-1h-.1C24.2,88.93,23.58,87.46,23,86a109.16,109.16,0,0,1-6-22.54c4.45,0,8.46-3,10.62-6.88,3-5.4,2.23-11.81.35-17.44a1,1,0,0,0-1.74-.23c-2.24,4-8,9-10.37,14.27a116.06,116.06,0,0,1,1.06-24.91C25.71,22.37,27.69,9.67,23.63.46A.94.94,0,0,0,22.16.27C15,7.82,6.6,19.68,14.13,29.89a.64.64,0,0,0,.31.22,116.45,116.45,0,0,0-1,14.69,18.53,18.53,0,0,0-.95-2.93A23,23,0,0,0,1.81,30.51a1,1,0,0,0-1.48.84C-.39,42.76-1.31,61,13.91,61.19c.06.13.12.26.19.39a.73.73,0,0,0,.47.38,114.15,114.15,0,0,0,4.21,18.46A15.87,15.87,0,0,0,2.85,77.29a1,1,0,0,0-.7,1.24c1.72,5.39,3.62,11.37,8.31,15,3.56,2.73,8.32,3.87,12.37,1.59a.76.76,0,0,0,.33-.82c-.13-.77-.25-1.55-.35-2.32a1.28,1.28,0,0,0,.39,0A118.92,118.92,0,0,0,39,117.89c-5.37-1.1-12.38-.41-15.39-.49a1,1,0,0,0-1,1.27c1.19,5.78,4.87,11.56,11,12.9a10.64,10.64,0,0,0,12.17-5.81.45.45,0,0,0,0-.11,84.25,84.25,0,0,0,18.6,14.51C64.84,140.4,65.37,139.79,65,139.46ZM2.61,47.6A78.27,78.27,0,0,1,2.2,33a20.43,20.43,0,0,1,9.52,13c.82,3.82.31,7.82,1,11.59C10.51,55.42,8.65,51,8.1,49.45a26.41,26.41,0,0,1-1.41-9.74c0-1.17-1.74-1.15-1.81,0A25.15,25.15,0,0,0,8.82,55c.95,1.46,2.61,4,4.48,4.81l.06.14C6.52,58.74,3.55,54.54,2.61,47.6Zm19.89-45c3,8.18.41,16-5,22.23a116.1,116.1,0,0,1,4-15.78c.43-1.32-1.65-1.89-2.08-.58a117.77,117.77,0,0,0-4.7,19.8C10.16,18.68,15.9,9.76,22.5,2.64Zm4.18,39c2,8.42.1,18.21-9.65,19.63a14.5,14.5,0,0,0,6.18-12.89A.91.91,0,0,0,22,47.62C23.56,45.71,25.23,43.79,26.68,41.65ZM21.54,48.2a1.25,1.25,0,0,0,0,.19,13,13,0,0,1-4.92,11.69C16.51,55.15,18.79,51.63,21.54,48.2Zm-11,42.68C7.3,87.61,5.76,83.23,4.4,79A13.74,13.74,0,0,1,21.9,90.4a11,11,0,0,1-5.18-1.93c-2.46-1.7-3.2-4-4.71-6.35a.65.65,0,0,0-1.2.33c-.19,3.06,2.62,6,5,7.53a12,12,0,0,0,6.27,1.87C21.11,97.22,13,93.42,10.5,90.88ZM33.63,106.1v0c-5.45-8-.45-17,3-24.92,5.13,6,5,13.47.95,19.43,1-3.9.57-8.2-2.13-11.1-.47-.5-1.5,0-1.21.71,1.06,2.55,2.2,4.69,2.24,7.55a12.85,12.85,0,0,1-1.26,5.69c-.48.48-1,1-1.53,1.41A.84.84,0,0,0,33.63,106.1Zm-1,23.1c-4.21-1.66-6.64-5.61-7.77-9.8,4.55-.09,12.78-.86,16.85,1.77q1,1.13,2,2.22a5,5,0,0,1,.21.58,11.11,11.11,0,0,1-6.79,1c-2.36-.42-4-1.72-5.89-3-.62-.4-1.47.41-1,1,2.95,4.33,9.63,4.59,14,2.27a.87.87,0,0,0,.38.48A10.16,10.16,0,0,1,32.61,129.2Z"/></g></g></svg>