<svg xmlns="http://www.w3.org/2000/svg" viewBox="0 0 168.69 24"><defs><style>.cls-1{fill:#3c3c3b;}</style></defs><title>spacer_leaf2</title><g id="Warstwa_2" data-name="Warstwa 2"><g id="Objects"><path class="cls-1" d="M167.61,10.75q-8.25.18-16.5.3A3.79,3.79,0,0,0,152,6.41c-1.75-3.41-6.25-3-9.27-4.27h0l-.18-.09c-.84-.35-1.45,1.09-.62,1.47l.19.07h0c2.64,1,2.69,5.42,4.51,7.5l-13.11.17C135.8,5.54,130.12-.18,124.23.63c-.51.07-.73.7-.64,1.13a18.74,18.74,0,0,0,5.32,9.57l-12.57.1a6.67,6.67,0,0,0,.06-5.06c-1.27-3.35-4.82-5-7.89-6.27a.92.92,0,0,0-1.37.79,13,13,0,0,0,4.54,10.57l-9.59.07A6.23,6.23,0,0,0,101.6,8C99.94,5.11,96,3.37,92.89,2.87c-1-.16-1.7,1.14-.72,1.7,2.34,1.33,2.14,4.59,3.6,6.62.09.13.2.25.3.37L84,11.63a5.74,5.74,0,0,0-.58-4.73c-1.7-2.84-5.35-3.54-8.36-4a.92.92,0,0,0-.89,1.52c1.69,1.7,2,5.38,3.69,7.24l-9.24.06a9.14,9.14,0,0,0-7.36-8.38.87.87,0,0,0-1.09.83,11,11,0,0,0,3.2,7.59l-11.12.09a6.24,6.24,0,0,0-.21-7.48,6.27,6.27,0,0,0-8.72-.56.88.88,0,0,0,0,1.25c2.36,2.16,4.59,4.45,6.74,6.82l-13.56.16a5.24,5.24,0,0,0,0-5.34c-1.64-2.85-5.35-3.38-8.33-3-.54.07-1.1.66-.7,1.22,1.72,2.4,3.41,4.84,5.23,7.18-3.17.05-6.35.09-9.52.15.81-1.76-.58-4.21-1.94-5.32-2.65-2.18-6.36-1.56-9.44-.9-1.08.28-.62,1.86.45,1.65l.3-.05c1.9-.2,2.9,3.07,4.45,4.74l-5.7.11a.41.41,0,0,0-.07-.11c-2-2-10.14-6.71-11.2-1.57a3.67,3.67,0,0,0,2.27,4.13c2.59,1.18,5.32-.11,7.93-.42a.45.45,0,0,0,.37-.69l6.18.19A18,18,0,0,0,10,20.58a.92.92,0,0,0,.54,1.34c4.82,1.18,11.93-2.15,12.07-7.74l8.4.19a17.7,17.7,0,0,0-4.52,7.36.92.92,0,0,0,.88,1.14,7.66,7.66,0,0,0,6.65-2.78c1.23-1.45,2.26-3.69,1.83-5.64,4.19.07,8.38.1,12.57.14a11.74,11.74,0,0,0-1.08,1.77,26.22,26.22,0,0,0-2,5.41A1,1,0,0,0,46.06,23a6.65,6.65,0,0,0,7-3.2,6.7,6.7,0,0,0,.43-5.13q6.51,0,13,0c-1.55,2.2-2.39,5.44-4.58,6.77a1,1,0,0,0,.23,1.73,6.77,6.77,0,0,0,8.5-8.51l7.74-.05A5.46,5.46,0,0,0,78,15c-1.64,2.11-1.29,5.78-3.89,7.07a1,1,0,0,0,.23,1.73,8,8,0,0,0,7.73-2.5c1.42-1.69,2.4-4.54,1.67-6.77,4.21,0,8.41-.11,12.61-.16A35,35,0,0,0,92,20.72a1,1,0,0,0,.82,1.42c2.73.31,6,.33,8-1.76a5,5,0,0,0,1-6l11.64-.2a.73.73,0,0,0,.2.54c1.24,1.25,2.17,2.47,1.26,4.32-.8,1.6-2.55,2.38-4.23,2.87a7.63,7.63,0,0,1,2-6.83c.45-.47-.21-1.09-.69-.7a8.67,8.67,0,0,0-2.84,8.87.92.92,0,0,0,1.1.62c2.76-.61,5.88-2,6.69-5a5.15,5.15,0,0,0-1.11-4.73q6.73-.12,13.47-.28c-2,2.67-3.78,5.43-5.64,8.16a.87.87,0,0,0,.51,1.25,6.84,6.84,0,0,0,8-2.12c1.39-1.86,2-5.45.32-7.35l15-.33A8.75,8.75,0,0,0,145,22a.83.83,0,0,0,1,.57,7.21,7.21,0,0,0,4.74-9.26L167.61,13A1.12,1.12,0,0,0,167.61,10.75ZM1.88,11.39c.27-2.19,3.63-.31,4.73.2s2,1.09,3.05,1.57a.7.7,0,0,0,.16.44C7.52,13.64,1.47,14.69,1.88,11.39ZM17.43,19a8.13,8.13,0,0,1-5.06,1.34,20.4,20.4,0,0,1,7.48-6.26l1.08,0C20.13,16.13,19.37,17.77,17.43,19Zm3.15-6.72a.43.43,0,0,0-.59-.23c-2.34,1-3.56-3.48-4.66-4.75l-.11-.12a7.09,7.09,0,0,1,4.35.65c1.92,1.1,1.94,2.56,2,4.43Zm11.86,6.87a5.94,5.94,0,0,1-3.75,1.88,15.32,15.32,0,0,1,2.64-4.36,25.81,25.81,0,0,1,2.5-2.28h.31C33.93,16.23,33.83,17.71,32.44,19.18Zm1.88-7.27a.59.59,0,0,0-.14.18h0c-1.41-2.34-2.94-4.59-4.47-6.85,1.84,0,3.78.3,5,1.74A3.4,3.4,0,0,1,34.32,11.91Zm11-7.33a4.4,4.4,0,0,1,5.51,1.15c1.22,1.68.82,3.44,0,5A62.78,62.78,0,0,0,45.32,4.58Zm6.26,13.67a4.48,4.48,0,0,1-4,2.87,36,36,0,0,1,2.5-6.51h1.22A4.92,4.92,0,0,1,51.58,18.25Zm13.82-6.5A10,10,0,0,1,62,5.35a7.33,7.33,0,0,1,4.87,6.39Zm-.84,9.78a12.17,12.17,0,0,0,1.61-2.85,12.19,12.19,0,0,1,2.3-4h.14A4.83,4.83,0,0,1,64.56,21.53Zm16.23-1.67a5.8,5.8,0,0,1-3.86,2.19,9.72,9.72,0,0,0,1.1-2.4c.37-1.13,1.12-4,2.5-5.07h1.29C81.91,16.49,82.1,18.14,80.79,19.86Zm1.12-8.22h-.8a.65.65,0,0,0-.2,0c-2.49,0-3.06-2.85-3.57-4.73A13,13,0,0,0,76.69,5a8.67,8.67,0,0,1,4.44,2A3.72,3.72,0,0,1,81.91,11.64ZM95.87,7a10.59,10.59,0,0,0-.57-1.52,12.38,12.38,0,0,1,3.4,2,4.85,4.85,0,0,1,1.61,2.11c.28.91-.09,1.25-.49,1.9H97.9a6,6,0,0,1-.9-1.19A15.57,15.57,0,0,1,95.87,7ZM98.6,19.65a7.72,7.72,0,0,1-4.33.73,44.57,44.57,0,0,1,3.92-6l1.76,0a.81.81,0,0,0,.11.78C101.14,16.74,100.17,18.76,98.6,19.65Zm15.55-8.2h-.7a12.34,12.34,0,0,1-4.51-9.15C112.62,4.12,117.09,7.42,114.15,11.45Zm16.43,8.87a5,5,0,0,1-4.83,1.56c1.59-2.62,3.2-5.22,4.68-7.9a.56.56,0,0,0,.07-.19H131a.76.76,0,0,0,0,.3,18.17,18.17,0,0,1,.74,3.12A4.86,4.86,0,0,1,130.58,20.32Zm1-9h-.92a19.13,19.13,0,0,1-5.08-8.94,6.6,6.6,0,0,1,4.94,2.12C132.32,6.45,132.26,8.93,131.61,11.3Zm14-5.83c-.14-.35-.29-.67-.45-1a23.53,23.53,0,0,1,2.56.67A4.57,4.57,0,0,1,150.39,7a2,2,0,0,1-1,3,.9.9,0,0,0-.51,1h-.13C146.72,10.3,146.33,7.3,145.62,5.47Zm.77,15.24a8,8,0,0,1,1.86-6.82.43.43,0,0,0,.07-.49h.56A5.51,5.51,0,0,1,146.39,20.71Z"/></g></g></svg>