<svg xmlns="http://www.w3.org/2000/svg" viewBox="0 0 177.05 31.74"><defs><style>.cls-1{fill:#3c3c3b;}</style></defs><title>spacer_leaf</title><g id="Warstwa_2" data-name="Warstwa 2"><g id="Objects"><path class="cls-1" d="M176.12,13.66c-2.34-.11-4.68-.15-7-.16.4-5.3-4-10.33-8.68-12.64A3.45,3.45,0,0,0,158.12,0a1,1,0,0,0-.25,1.85,14.12,14.12,0,0,1,1.41.54c1.46,1.73-.8,7.51-.13,9.37a5.8,5.8,0,0,0,1.17,1.87c-5.12.14-10.25.39-15.36.62-.62-3.31-1.29-6.16-4-8.74a13.46,13.46,0,0,0-9.86-3.75,1,1,0,0,0,0,1.89c3,.34,2,6.36,3.18,8.51a8.51,8.51,0,0,0,2.06,2.41c-.68,0-1.36.06-2,.07q-8.48.19-17,.36c1.7-4.24,1.61-9.17-2.39-12.07s-9.33-2-13.5.37c-.66.37-.61,1.61.23,1.74,4.18.62,5.36,7.28,8.39,10.09-5.86.11-11.72.22-17.58.3l-3.69,0c1.78-2,1.31-5.12-.71-7.07-3.23-3.14-8.85-4-13.14-4.24a.93.93,0,0,0-.47,1.73c2.8,1.28,1.76,6.17,3.19,8.56a7.49,7.49,0,0,0,.82,1.1q-7,.06-14,.1c2.38-7.16-5-13.29-11.79-12-.87.16-.86,1.34-.23,1.76,1.27.84.16,3.46.17,4.74a4.92,4.92,0,0,0,1.14,3.2,12.4,12.4,0,0,0,2.49,2.35L41,15.75l0-.08a7.93,7.93,0,0,0-1-6.39c-3.15-5.15-9.54-5.56-15-5.09-1,.09-1.4,1.66-.26,1.89C27,6.52,27.11,9.25,27.71,11a8.57,8.57,0,0,0,2.37,3.79,8.52,8.52,0,0,0,1.48,1c-3.18,0-6.36.06-9.54.11-6.39-6.71-17.18-4.7-21.88,3a1,1,0,0,0,.58,1.43c6.54,2.26,14.77,4.22,19.48-2.21,3.27.06,6.54.09,9.81.12-3,2.35-3.73,7.45-3.84,11.26a.9.9,0,0,0,.9.9c5.9-.1,13-5.64,12.07-12.13,5.73,0,11.46,0,17.2-.1a6.55,6.55,0,0,0-.68.79,5.82,5.82,0,0,0-1.09,3.3c0,1.88,2,5.68-.5,6.66a.87.87,0,0,0,.46,1.68A12.88,12.88,0,0,0,65,18.11l15.59-.23a5.05,5.05,0,0,0-.9.89c-2.46,3.09-.71,9.28-4.84,11a1,1,0,0,0,.25,1.85c4.35.4,9.38-.17,12.35-3.77,2.27-2.77,2.83-6.87.6-9.81a.75.75,0,0,0-.15-.16s0-.07,0-.11l4.56-.07q8.25-.12,16.49-.28c-2.48,2.41-1.78,8.32-3.89,10.73a.92.92,0,0,0,1.11,1.45c3.15-1.76,7.27-.91,10.23-3.08,3.24-2.38,2.1-6.29.37-9.24q8.26-.16,16.51-.35c1.34,0,2.69-.05,4-.06-2.75,2.54-2.59,9.19-3.8,12-.25.58,0,1.52.83,1.43,4.47-.49,10-1.28,12.48-5.62,1.23-2.19,1.58-5.85-.15-7.88,4.11,0,8.23-.07,12.34-.18a5.09,5.09,0,0,0-.58.56c-2.71,3.16-.54,8-3,11.25-.63.83.53,1.56,1.26,1.26,4.53-1.93,11.87-2,13.66-7.67a5.49,5.49,0,0,0-1.84-5.79h.28l0,0a.61.61,0,0,0,1-.11c2.1-.15,4.2-.32,6.28-.54A1,1,0,0,0,176.12,13.66ZM8.81,17.87c3.33.11,6.65.19,10,.26-4.5,4.13-10.85,2.64-16.27.8,4.13-5.57,10.87-6.32,16.4-2.92q-5,.09-10.1.23A.82.82,0,0,0,8.81,17.87Zm25.74,7.4A10.48,10.48,0,0,1,28,28.57c.15-3.67.87-8.62,4.24-10.28l2.86,0q-.43.39-.84.81a10.61,10.61,0,0,0-2.82,4.31.72.72,0,0,0,1.31.55c1-1.28,1.58-2.79,2.65-4A15.4,15.4,0,0,1,37,18.32h.53C37,21,36.52,23.19,34.55,25.27Zm4.68-9.87-.12,0a21.16,21.16,0,0,1-2.55-2c-.94-.87-1.75-2.25-2.89-2.82a.57.57,0,0,0-.83.63c.35,1.36,1.89,2.45,2.94,3.28a21.66,21.66,0,0,0,1.87,1.31l-2.34,0a8,8,0,0,1-3.82-1.87c-1.58-1.43-2-3.16-2.53-5.1a11.17,11.17,0,0,0-1.18-2.9,15,15,0,0,1,7,1.21,8.19,8.19,0,0,1,3.76,3.44C38.82,11.1,39.68,14.87,39.23,15.4ZM54.68,8.72a7.74,7.74,0,0,0,0-3.38c5.18-.17,8.28,4.19,8.05,9.18a13.27,13.27,0,0,0-1.34-2c-.79-1-1.94-2.39-3.22-2.65-.51-.1-1.06.45-.72.94.65,1,1.86,1.58,2.7,2.43a14.85,14.85,0,0,1,1.95,2.46h-3a19.46,19.46,0,0,1-1.67-1.19C55.55,12.88,54.3,11.4,54.68,8.72Zm2.16,19.33A5,5,0,0,0,57,26.43c-.1-1.78-1.13-3.48-.67-5.29a4.77,4.77,0,0,1,2.37-2.95l2.66,0,.57.17a.41.41,0,0,0,.27,0A13.93,13.93,0,0,1,61,20.19c-.84,1.15-2,1.94-2.87,3-.48.62.41,1.28,1,1a9.38,9.38,0,0,0,3.05-3.35,13.65,13.65,0,0,0,.88-1.64A11.14,11.14,0,0,1,56.84,28.05ZM85,27.61a11.43,11.43,0,0,1-7.25,2.25,8.64,8.64,0,0,0,1.6-3.5c.5-2.16.86-8,3.74-8.41a7.69,7.69,0,0,0,1.07.07,4.4,4.4,0,0,1,.9.34.5.5,0,0,0,.72-.55h.92a.81.81,0,0,0-.45.92,9.28,9.28,0,0,1-1.74,2.16,9,9,0,0,1-1.82,1.3,5.53,5.53,0,0,0-1.61,1,.67.67,0,0,0,.47,1.14C83,24.51,84.62,23,85.56,22A10.47,10.47,0,0,0,87,20.07,6.44,6.44,0,0,1,85,27.61Zm2-13-.07.08a4.72,4.72,0,0,0-.55-2.58c-.67-1.27-2.23-2.7-3.74-2a.5.5,0,0,0,0,.85c.88.66,1.83.87,2.43,1.89a3.27,3.27,0,0,1,.38,2.63l-4.67,0a5.91,5.91,0,0,1-1.59-1.93c-.78-1.48-.73-3.2-1-4.82a8.88,8.88,0,0,0-.7-2.49,27.72,27.72,0,0,1,5.3,1.3C84.92,8.4,90.87,11.88,86.91,14.6ZM104.26,4c2.87-1.19,6.1-1.6,8.92,0,3.62,2.1,3.38,5.48,2.78,8.94a7.57,7.57,0,0,0-1.26-2.84c-.83-1.21-2.37-3.07-4-3a.69.69,0,0,0-.59,1c.78,1.12,2.21,1.65,3.1,2.75A16.7,16.7,0,0,1,115.36,15h0l-2,0C108.86,14.4,108.15,6.7,104.26,4Zm11.83,20.2c-.84,1.2-2.33,1.58-3.69,1.87-1.58.33-3.16.51-4.69.93a12.72,12.72,0,0,0,.53-2.47c.28-2.33.33-6.28,3-7.18l2.66,0c-.68.75-1.34,1.51-2,2.27s-1.72,1.56-1.74,2.56a1,1,0,1,0,2-.14.88.88,0,0,0-.09-.2l.45-.61,1-1.44L115,17.84C116.1,19.68,117.5,22.23,116.09,24.24Zm19.8-12.56c-1-1.9-.5-4-.92-6A6.13,6.13,0,0,0,134.36,4a11.59,11.59,0,0,1,5.79,3.4,11.4,11.4,0,0,1,2.54,4.39,17.72,17.72,0,0,1,.48,2.56h-.28a.56.56,0,0,0,0-.32,9.14,9.14,0,0,0-2-3.6c-.72-.94-1.55-2.21-2.73-2.56a.62.62,0,0,0-.77.76c.4,1.11,1.49,1.88,2.23,2.78s1.36,2.12,2.21,3l-3.31.11A9.71,9.71,0,0,1,135.89,11.68ZM144.23,25c-2.16,2.23-5.51,2.82-8.54,3.22.79-3.76.45-10.2,4.12-11.37H140a.59.59,0,0,0,.23,0h2a4.63,4.63,0,0,1-.6,2.33,12,12,0,0,1-2,2,.64.64,0,0,0,.62,1.06c2.17-.35,3.35-3.27,3.16-5.37h.63l.09,0s0,.06.05.08C146.29,19.4,146.66,22.46,144.23,25ZM160.69,8.91c.29-1.74,1.26-3.21,1.11-5,0,0,0,0,0-.07A13.3,13.3,0,0,1,165,7.12,13.65,13.65,0,0,1,166.9,12c-.08-.08-.15-.17-.23-.26-.85-.93-1.74-2.42-3-2.74a.58.58,0,0,0-.71.71c.24,1.27,1.7,2.26,2.58,3.16l.6.6c-1.24,0-2.49,0-3.74.07A4.76,4.76,0,0,1,160.69,8.91Zm7.85,12.58c-.62,1.86-2.45,3.08-4.15,3.82a54.15,54.15,0,0,1-6.27,1.94,11.28,11.28,0,0,0,.51-3.08,26.67,26.67,0,0,1,.19-4c.37-1.82,2.51-5.13,4.83-2.75.41.41,1-.21.63-.63a3.52,3.52,0,0,0-.41-.36h.3a.78.78,0,0,0,.87.66l.24,0a7.42,7.42,0,0,1-.85,1.86A17.73,17.73,0,0,1,162,21.6a.63.63,0,0,0,.75,1c2-.88,3.26-3.16,3.72-5.35A3.54,3.54,0,0,1,168.54,21.49Z"/></g></g></svg>