<svg xmlns="http://www.w3.org/2000/svg" viewBox="0 0 180.32 33.8"><defs><style>.cls-1{fill:#3c3c3b;}</style></defs><title>spacer_leaf3</title><g id="Warstwa_2" data-name="Warstwa 2"><g id="Objects"><path class="cls-1" d="M179.47,15.92c-3.85-.36-7.74-.52-11.65-.58a1,1,0,0,0,0-.29c-2.3-7.79-10.85-12.63-18.67-12a1,1,0,0,0-.25,1.86c4.44,1.57,6,7.67,9.57,10.47q-3.51,0-7,.14a.46.46,0,0,0-.89,0l0,0-2.54.06a.45.45,0,0,0-.46-.57,7.47,7.47,0,0,0-3,.65l-4.88.08h-.86l0-.1-.79-.76c.87-3.13-.91-6.2-3.64-8-4.38-2.86-9.74-2-14.6-1.18a1,1,0,0,0-.41,1.57c3.33,2.87,6.61,5.88,10.1,8.55q-9.23.12-18.43.27C115.22,6.91,99.16,1.19,92.86,0a1,1,0,0,0-.73,1.72c3.37,2.5,3.2,7.72,5.67,11a12.38,12.38,0,0,0,4.25,3.56l-3.27.06-5.65.13a1,1,0,0,0-1.8,0l-7.45.18a1.16,1.16,0,0,0-.88-.22,2.26,2.26,0,0,0,.08-1,5.55,5.55,0,0,0-.08-1,11.18,11.18,0,0,0-.72-2.91,13,13,0,0,0-2.46-3.92,12.21,12.21,0,0,0-9-4.06.93.93,0,0,0-.89,1.17c.74,3.65.92,9.5,3.84,12.22-3.34.09-6.68.18-10,.29-1.1-10.91-14.5-12.63-23.28-12C39.65,5.35,39.06,6.63,40,7c4.86,2.09,7.94,7.75,12.25,10.63-5.76.23-11.51.48-17.26.8l.16-.2a1,1,0,0,0,0-1l-.24-.4a.83.83,0,0,0-1.54.42c.23-4.84-8.47-4.82-11.22-4.35C14.56,14.26,7,18.11.49,22.06A1,1,0,0,0,1,24c9.58-.06,26.83,10,32-3.37,7.15-.2,14.29-.44,21.44-.68-3.63,2.76-7,5.81-10.37,8.91a1,1,0,0,0,.2,1.51c4.52,2,9.91,4.1,14.73,1.85,4.39-2.06,6.47-7.19,7.09-11.73a.94.94,0,0,0-.36-.91c5.2-.18,10.4-.32,15.6-.47a21.83,21.83,0,0,0-8.71,10.47,1,1,0,0,0,.66,1.18,14.82,14.82,0,0,0,19.77-12c1.9-.05,3.8-.11,5.71-.15,4.63-.1,9.27-.17,13.9-.25-3.91,2.83-3.54,11.71-8.37,13.27-.84.27-1,1.64,0,1.84,9.23,1.92,20.7-4.71,19.92-15.23,0,0,0,0,0-.06,4.8-.06,9.6-.13,14.4-.17h2.49c-3,2.87-5.22,7.16-7.2,9.93-.46.65.17,1.42.84,1.46,5.14.35,10.91.66,15.33-2.5a10,10,0,0,0,4.51-8.73,248.13,248.13,0,0,0,24.88-.49A.88.88,0,0,0,179.47,15.92ZM18.14,21q6.75-.15,13.52-.34c-5.11,9.55-18.16,3.1-27.4,1.57,6.37-3.72,14.28-7.74,21.37-7.48,3.14.11,3.82,2.11,6.15,3.47a2.27,2.27,0,0,1,.43.4c-4.7.28-9.39.57-14.07.92C17.21,19.6,17.18,21,18.14,21ZM43.6,7c7.86-.11,16.17,1.76,18.22,10.27l-1.7.05a.47.47,0,0,0,0-.16,10.36,10.36,0,0,0-4.14-4.69c-1.5-.9-3.76-1.88-5.46-1.16a.64.64,0,0,0,0,1.1c1.47.72,3.15.61,4.65,1.45a9.2,9.2,0,0,1,3.52,3.51l-3.6.14C50.55,15.57,47.63,10.2,43.6,7ZM64.39,20c-1.06,3.52-1.76,7.34-4.93,9.64-4,2.86-8.85,1.27-13-.44,2.3-2.39,7-7.43,10.3-9.34l3.92-.13a9.82,9.82,0,0,1-2.2,3.33c-1.2,1.17-2.7,1.6-4,2.53a.69.69,0,0,0,.34,1.27c3.43.06,6.45-4,7.19-7.17l2.65-.09A1,1,0,0,0,64.39,20Zm16.25-3.24a15.2,15.2,0,0,1-1.75-2.58,39.11,39.11,0,0,0-1.6-3.61.7.7,0,0,0-1.29.35,8,8,0,0,0,1.56,4,15.44,15.44,0,0,0,1.36,1.85l-3,.09c-3.47-2-3.55-7.51-4-11.4,5.42.67,9.1,5.29,9.27,10.72,0,.17,0,.35,0,.53ZM74.88,29.2A21.71,21.71,0,0,1,84.46,19l4.82-.14c-2.58,2.67-5.53,4.24-8.93,5.93-.94.46-.28,1.95.7,1.67,3.91-1.15,7.41-4.24,9.92-7.4A12.84,12.84,0,0,1,74.88,29.2Zm34.44-13.35a24,24,0,0,0-3.59-4.55c-1.48-1.47-3.55-3.52-5.64-4a.72.72,0,0,0-.69,1.19c1.5,1.51,3.65,2.41,5.25,3.88a25.47,25.47,0,0,1,3.33,3.8l-3.07.06c-4.17-1.77-6.6-5-7.94-9.42a18.78,18.78,0,0,0-1.75-4.32,31.73,31.73,0,0,1,7.5,3C107,7.89,110.08,10.57,109.32,15.85Zm8.27,12.64a14.23,14.23,0,0,1-10.18,3.44,9.61,9.61,0,0,0,2.2-3.41c1.41-3.43,1.88-10.24,7-9.79a.51.51,0,0,0,.53-.45l2.95-.05A13.75,13.75,0,0,1,117.19,22a12.2,12.2,0,0,1-2.11,1.5,7.18,7.18,0,0,0-2,1.17.63.63,0,0,0,.44,1.07c1.66.06,3.52-1.65,4.64-2.73a14,14,0,0,0,3.16-4.66.8.8,0,0,0,0-.15l1.22,0C121.73,22.18,120.77,25.65,117.59,28.49Zm18.7-15.12c-.47-.41-.95-.83-1.45-1.21-1.31-1-2.85-2.32-4.5-2.62a.62.62,0,0,0-.6,1c1.09,1.06,2.66,1.65,3.92,2.49A27.63,27.63,0,0,1,136,14.87l-.06.25a.79.79,0,0,0,.1.66l-4.43.05a38,38,0,0,1-4.72-4.23l-4.86-4.32C127.44,6.67,136.75,6.86,136.29,13.37Zm.18,14.18c1.87-3,4.09-7.11,6.92-9.53l6.08.06a12.21,12.21,0,0,1-1.79,2.51c-1.32,1.44-2.94,2.12-4.51,3.17a.7.7,0,0,0,.54,1.28c3.27-.58,5.84-3.75,7.06-6.93l1.91,0C153.06,26.73,143.32,27.77,136.47,27.55Zm25.08-12.22c-4.25-1.29-5.93-7-9.26-10.33,6,.69,10.62,4.54,13.47,10l-2-2.2a26.62,26.62,0,0,0-3.49-3.7c-.54-.4-1.24.38-.9.91a25.8,25.8,0,0,0,3.44,3.73l1.46,1.52Z"/></g></g></svg>