<svg xmlns="http://www.w3.org/2000/svg" viewBox="0 0 130.47 45.98"><defs><style>.cls-1{fill:#3c3c3b;}</style></defs><title>Zasób 5</title><g id="Warstwa_2" data-name="Warstwa 2"><g id="Objects"><path class="cls-1" d="M65.23,23.3c-1.94,6.56-7.53,11.25-14.64,9.91l-.06,0A13.31,13.31,0,0,0,52,27.66c.17-5-5.33-11.08-10-6.37s.3,10.55,5.31,12.9a16.81,16.81,0,0,1-1.19,1.53c-7.91,9-23.39,10.84-33.43,4.51-9.51-6-14.4-19.4-7.93-29.34A19.65,19.65,0,0,1,18.92,2a10.06,10.06,0,0,1,3.83.14,6.57,6.57,0,0,1,4,7.38A14.17,14.17,0,0,1,25.38,13a5.52,5.52,0,0,1-2.67,2.76,2.79,2.79,0,0,1-3.61.56c.32-.43-.37-.94-.73-.57l-.3.31a.5.5,0,0,0-.08.6c2.18,5.08,8.62-2.51,9.58-4.65C29.9,6.77,29.23,1.32,22.94.26,7.58-2.31-3.35,14.41.94,28.07,6,44.1,24.78,50,39.37,43.22A25,25,0,0,0,49.49,35l.7.17A14.1,14.1,0,0,0,66.71,23.7.77.77,0,0,0,65.23,23.3ZM47,26a7.21,7.21,0,0,0-.67-.57c.25-.19.48-.35.69-.49C47,25.25,47,25.6,47,26Z"/><path class="cls-1" d="M63.76,23.7A14.09,14.09,0,0,0,80.27,35.15L81,35A25.05,25.05,0,0,0,91.1,43.22c14.59,6.75,33.39.88,38.43-15.15,4.29-13.66-6.64-30.38-22-27.81-6.28,1.06-7,6.51-4.62,11.74.95,2.14,7.4,9.73,9.58,4.65a.51.51,0,0,0-.08-.6l-.3-.31c-.36-.37-1.06.14-.73.57a2.79,2.79,0,0,1-3.61-.56A5.52,5.52,0,0,1,105.09,13a13.78,13.78,0,0,1-1.39-3.45,6.55,6.55,0,0,1,4-7.38A10.06,10.06,0,0,1,111.55,2a19.63,19.63,0,0,1,14.1,8.87c6.47,9.94,1.58,23.35-7.92,29.34-10,6.33-25.52,4.53-33.44-4.51a18.8,18.8,0,0,1-1.19-1.53c5-2.35,10.08-8.06,5.32-12.9s-10.14,1.39-10,6.37a13.16,13.16,0,0,0,1.48,5.53l-.06,0c-7.11,1.34-12.7-3.35-14.65-9.91A.76.76,0,0,0,63.76,23.7Zm19.67,1.2a8.17,8.17,0,0,1,.69.49,7.09,7.09,0,0,0-.66.57Z"/></g></g></svg>