<svg xmlns="http://www.w3.org/2000/svg" viewBox="0 0 162.03 45.37"><defs><style>.cls-1{fill:#3c3c3b;}</style></defs><title>Zasób 4</title><g id="Warstwa_2" data-name="Warstwa 2"><g id="Objects"><path class="cls-1" d="M152.91.27c-7.43-1.92-14.74,6.88-9,13.12.83.9,2.47-.31,1.73-1.34A5.9,5.9,0,0,1,146.46,4c3.18-2.81,7.85-1.49,10.56,1.47,4.17,4.54,3.18,11.62,0,16.41-6.65,10.11-20.51,10.21-31.24,9.55-10.51-.65-20.88-1.12-31.14,1.84-5,1.44-10.15,4.13-11.64,9.19C80.88,35.86,74.07,32,67.46,31c-11.42-1.74-23,2.59-34.53,1.69-9.75-.76-27-3.49-30.16-14.78-1.66-5.92,2-13.13,8-15a9.56,9.56,0,0,1,8.36,1.24c4,3,2.66,10.45-3.16,10-1-.09-1,1.46,0,1.58,3.95.51,7.15-2.61,7.61-6.47.51-4.26-2.81-7.53-6.69-8.62C6.64-2.31-2.17,9,.47,18.52,4,31.09,22.07,34.22,32.93,35c8.82.67,17.14-1.19,25.86-1.85,9.08-.69,19.31,1.4,22.44,11.19a1.08,1.08,0,0,0,1.55.67c.37.47,1.31.46,1.41-.24,1.12-8,11.74-9.82,18.27-10.84,8.15-1.28,16.16-.59,24.34-.14,11.39.64,25.42-.17,32.32-10.79C164.09,15.4,163.12,2.9,152.91.27Z"/></g></g></svg>