<svg xmlns="http://www.w3.org/2000/svg" viewBox="0 0 131.05 46.14"><defs><style>.cls-1{fill:#3c3c3b;}</style></defs><title>undescore_simple</title><g id="Warstwa_2" data-name="Warstwa 2"><g id="Objects"><path class="cls-1" d="M131,4.39c-.12-1.53-2.51-1.54-2.39,0,.8,10.1-7.29,18-16.27,21.15-9.56,3.37-20.1,2-30,1.77-4.24-.1-11.42.23-16.54,2.49a20.44,20.44,0,0,0-4.36-1.08c-8-1.11-16.25.37-24.3.16-17.48-.43-32-11-35.86-28.41C1.08-.37-.1,0,0,.82A35.14,35.14,0,0,0,24.57,29.51c8.72,2.6,17.94,1.65,26.89,1.36,3.73-.12,7.84-.38,11.53.53-2.83,2.13-4.19,5.33-2.4,10.08,3.34,8.89,14.09,3.8,12.08-4.7A9.2,9.2,0,0,0,68.27,31c3.24-1.25,6.91-1.33,10.34-1.35,9.35,0,18.75,1.24,28.06-.26C118.94,27.39,132.08,18.15,131,4.39ZM62.32,37.87a7,7,0,0,1,3.41-5.56,7.65,7.65,0,0,1,4.53,4.56c.79,2.5.12,7.24-3.65,7.13C63.68,43.91,62.21,40.28,62.32,37.87Z"/></g></g></svg>