<svg id="Capa_1" enable-background="new 0 0 479.058 479.058" height="512" viewBox="0 0 479.058 479.058" width="512" xmlns="http://www.w3.org/2000/svg"><path d="m239.529 479.058c-3.64 0-7.281-1.33-10.161-3.977l-92.996-85.847h-91.46c-8.275 0-14.971-6.696-14.971-14.971v-359.292c0-8.275 6.696-14.971 14.971-14.971h389.234c8.275 0 14.971 6.696 14.971 14.971v359.293c0 8.275-6.696 14.971-14.971 14.971h-91.461l-92.996 85.847c-2.88 2.645-6.52 3.976-10.16 3.976zm-179.647-119.765h82.338c3.757 0 7.383 1.418 10.161 3.977l87.148 80.437 87.148-80.437c2.778-2.558 6.403-3.977 10.161-3.977h82.338v-329.352h-359.294z"/></svg>