<svg id="Capa_1" enable-background="new 0 0 359.293 359.293" height="512" viewBox="0 0 359.293 359.293" width="512" xmlns="http://www.w3.org/2000/svg"><path d="m344.323 359.293c-189.866 0-344.323-154.457-344.323-344.322 0-8.275 6.696-14.971 14.971-14.971h119.764c8.275 0 14.971 6.696 14.971 14.971 0 29.605 6.71 58.318 19.927 85.335 2.997 6.14 1.462 13.538-3.743 17.982l-83.201 70.818c23.084 34.576 52.821 64.327 87.382 87.426l70.949-83.142c4.444-5.219 11.827-6.71 17.968-3.728 27.017 13.216 55.73 19.927 85.335 19.927 8.275 0 14.971 6.696 14.971 14.971v119.764c-.001 8.273-6.696 14.969-14.971 14.969zm-148.229-67.133c40.043 21.506 85.247 34.576 133.258 36.842v-89.969c-25.087-1.681-49.502-7.573-72.894-17.602 0-.001-60.364 70.729-60.364 70.729zm-165.802-262.219c2.251 47.952 15.307 93.127 36.769 133.141l70.789-60.262c-10.014-23.391-15.906-47.806-17.587-72.879-.001 0-89.971 0-89.971 0z"/></svg>