<svg xmlns="http://www.w3.org/2000/svg" viewBox="0 0 62.09 16.76"><defs><style>.cls-1{fill:#f32836;}</style></defs><title>Zasób 1</title><g id="Warstwa_2" data-name="Warstwa 2"><g id="Warstwa_1-2" data-name="Warstwa 1"><g id="sex"><path class="cls-1" d="M12.13,8.75a.73.73,0,0,1,.09.39,1.16,1.16,0,0,1-.23.75,3.32,3.32,0,0,1-2.53,1.45,2.22,2.22,0,0,1-1.86-.9,4.11,4.11,0,0,1-.7-2.58,7.63,7.63,0,0,1,0-.82,16.62,16.62,0,0,1-1.73.22l-.85.06c-.16.82-.39,1.82-.68,3-.16.7-.48,1-1,1S2,11.13,2,10.67A2.07,2.07,0,0,1,2,10.24c.27-1.1.48-2,.64-2.79l-.57,0a1,1,0,0,1-.58-.14.53.53,0,0,1-.18-.45.7.7,0,0,1,.23-.58,1.21,1.21,0,0,1,.76-.21l.63,0a15.24,15.24,0,0,0,.31-2.58,1.32,1.32,0,0,0-.16-.77.58.58,0,0,0-.45-.2c-.56,0-1.19.47-1.89,1.4a.45.45,0,0,1-.35.21A.35.35,0,0,1,.12,4,.61.61,0,0,1,0,3.58a1.4,1.4,0,0,1,.3-.8,4.38,4.38,0,0,1,1.33-1.2A3.16,3.16,0,0,1,3.26,1.1a1.45,1.45,0,0,1,1.21.54A2.66,2.66,0,0,1,4.9,3.3,17.55,17.55,0,0,1,4.61,6l1.17-.06a10.53,10.53,0,0,0,1.3-.12,11.94,11.94,0,0,1,.66-2.47,5.89,5.89,0,0,1,1.1-1.87A2,2,0,0,1,10.32.76a1.1,1.1,0,0,1,.95.47,2.07,2.07,0,0,1,.35,1.24,4.17,4.17,0,0,1-3,4.13c0,.32,0,.65,0,1a3.65,3.65,0,0,0,.32,1.78,1,1,0,0,0,.87.53,1.58,1.58,0,0,0,.9-.26,4.26,4.26,0,0,0,.93-.88.41.41,0,0,1,.32-.17A.29.29,0,0,1,12.13,8.75ZM9.7,2.28a6.73,6.73,0,0,0-.56,1.31A13.81,13.81,0,0,0,8.72,5.4a2.87,2.87,0,0,0,1.42-1.13,3.54,3.54,0,0,0,.46-1.88A.83.83,0,0,0,10.5,2a.26.26,0,0,0-.24-.16C10.08,1.8,9.9,2,9.7,2.28Z"/><path class="cls-1" d="M11.53,10.8a2.19,2.19,0,0,1-.44-1.42,3.93,3.93,0,0,1,.44-1.81,3.71,3.71,0,0,1,1.18-1.38,2.7,2.7,0,0,1,1.57-.53.44.44,0,0,1,.35.11.82.82,0,0,1,.15.36,3.07,3.07,0,0,1,.53,0c.39,0,.59.14.59.42a8.91,8.91,0,0,1-.18,1.2,12.27,12.27,0,0,0-.28,1.92.44.44,0,0,0,.09.29.3.3,0,0,0,.24.11,1,1,0,0,0,.55-.29,10.68,10.68,0,0,0,.88-1,.41.41,0,0,1,.32-.17.29.29,0,0,1,.25.15.73.73,0,0,1,.09.39,1.14,1.14,0,0,1-.23.75,6,6,0,0,1-1.05,1,1.75,1.75,0,0,1-1.06.42,1.12,1.12,0,0,1-.73-.27,1.65,1.65,0,0,1-.5-.74,1.82,1.82,0,0,1-1.57,1A1.46,1.46,0,0,1,11.53,10.8Zm2.13-1A2,2,0,0,0,14,9l.45-2.21a1.42,1.42,0,0,0-.93.38,2.46,2.46,0,0,0-.68,1,3.25,3.25,0,0,0-.25,1.28.86.86,0,0,0,.15.55.51.51,0,0,0,.41.18A.68.68,0,0,0,13.66,9.82Z"/><path class="cls-1" d="M23.54,8.75a.73.73,0,0,1,.09.39,1.14,1.14,0,0,1-.23.75,5.15,5.15,0,0,1-1.11,1,2.36,2.36,0,0,1-1.35.41,1.28,1.28,0,0,1-1-.46,2.66,2.66,0,0,1-1.43.46,14.47,14.47,0,0,1-.71,3.87c-.37,1-.91,1.55-1.62,1.55a1.08,1.08,0,0,1-1-.46,2.34,2.34,0,0,1-.31-1.3,8.57,8.57,0,0,1,.54-2.74,18.52,18.52,0,0,1,1.67-3.45c0-1.17,0-2,0-2.44a.64.64,0,0,1,.28-.55,1.18,1.18,0,0,1,.72-.2.55.55,0,0,1,.37.1.61.61,0,0,1,.12.4c0,.2,0,.35,0,.44a2.78,2.78,0,0,1,.76-.69,1.58,1.58,0,0,1,.79-.21,1.33,1.33,0,0,1,1.1.54,2.27,2.27,0,0,1,.43,1.42,3.76,3.76,0,0,1-.21,1.24A3.88,3.88,0,0,1,20.87,10a1.52,1.52,0,0,0,.42.07A1.2,1.2,0,0,0,22,9.73a7.24,7.24,0,0,0,.93-1,.41.41,0,0,1,.32-.17A.27.27,0,0,1,23.54,8.75Zm-6.75,5.43a30.35,30.35,0,0,0,.27-3.51A18.1,18.1,0,0,0,16.25,13,7.18,7.18,0,0,0,16,14.8a1.46,1.46,0,0,0,.09.58q.09.21.21.21Q16.57,15.59,16.79,14.18Zm2.55-4.47a2.72,2.72,0,0,0,.58-.93,3.29,3.29,0,0,0,.22-1.17A.88.88,0,0,0,20,7.06a.45.45,0,0,0-.38-.18c-.29,0-.64.3-1.05.91,0,.35,0,.87,0,1.55,0,.36,0,.65,0,.85A1.61,1.61,0,0,0,19.34,9.71Z"/><path class="cls-1" d="M29.31,8.75a.73.73,0,0,1,.09.39,1.14,1.14,0,0,1-.23.75,5.15,5.15,0,0,1-1.11,1,2.32,2.32,0,0,1-1.35.41,1.28,1.28,0,0,1-1-.46,2.66,2.66,0,0,1-1.43.46,14.47,14.47,0,0,1-.71,3.87c-.36,1-.9,1.55-1.62,1.55a1.08,1.08,0,0,1-1-.46,2.43,2.43,0,0,1-.31-1.3,8.57,8.57,0,0,1,.54-2.74,18.52,18.52,0,0,1,1.67-3.45c0-1.17,0-2,0-2.44a.61.61,0,0,1,.27-.55,1.18,1.18,0,0,1,.72-.2.55.55,0,0,1,.37.1.56.56,0,0,1,.12.4,4.17,4.17,0,0,0,0,.44,2.62,2.62,0,0,1,.75-.69,1.58,1.58,0,0,1,.79-.21A1.33,1.33,0,0,1,27,6.2a2.21,2.21,0,0,1,.43,1.42,3.76,3.76,0,0,1-.21,1.24A3.88,3.88,0,0,1,26.64,10a1.52,1.52,0,0,0,.42.07,1.23,1.23,0,0,0,.76-.29,7.3,7.3,0,0,0,.92-1,.43.43,0,0,1,.32-.17A.27.27,0,0,1,29.31,8.75Zm-6.75,5.43a30.08,30.08,0,0,0,.28-3.51A16.77,16.77,0,0,0,22,13a7.18,7.18,0,0,0-.3,1.84,1.46,1.46,0,0,0,.09.58q.09.21.21.21Q22.35,15.59,22.56,14.18Zm2.55-4.47a2.72,2.72,0,0,0,.58-.93,3.08,3.08,0,0,0,.22-1.17.88.88,0,0,0-.15-.55.45.45,0,0,0-.38-.18c-.29,0-.64.3-1,.91,0,.35,0,.87,0,1.55,0,.36,0,.65,0,.85A1.57,1.57,0,0,0,25.11,9.71Z"/><path class="cls-1" d="M33,5.76a.28.28,0,0,1,.11.24,20.39,20.39,0,0,1-.31,2.05c-.19,1.13-.29,1.8-.33,2a19.47,19.47,0,0,1-1.22,4.88c-.52,1.2-1.21,1.8-2.08,1.8a1.34,1.34,0,0,1-1-.38,1.31,1.31,0,0,1-.39-1,2.9,2.9,0,0,1,.26-1.15,5.18,5.18,0,0,1,1-1.35,16,16,0,0,1,2-1.75l0-.27c.06-.3.12-.72.19-1.27a3,3,0,0,1-.67,1.31,1.26,1.26,0,0,1-.91.45,1,1,0,0,1-.88-.5,2.11,2.11,0,0,1-.34-1.24A10.48,10.48,0,0,1,28.55,8a10.79,10.79,0,0,1,.39-1.59,1.07,1.07,0,0,1,.34-.52A1.2,1.2,0,0,1,30,5.69a.65.65,0,0,1,.37.08.3.3,0,0,1,.1.25,4.37,4.37,0,0,1-.13.65c-.08.3-.14.57-.19.81s-.12.64-.17.94a4.52,4.52,0,0,0-.07.74c0,.3.08.45.25.45s.27-.12.45-.36a5.49,5.49,0,0,0,.58-1.09,15.24,15.24,0,0,0,.59-1.8A1,1,0,0,1,32,5.84a1,1,0,0,1,.6-.15A.71.71,0,0,1,33,5.76Zm-3,9.12a10.72,10.72,0,0,0,.74-2.32A6.81,6.81,0,0,0,29.39,14,2.18,2.18,0,0,0,29,15.11a.56.56,0,0,0,.08.33.27.27,0,0,0,.25.14C29.52,15.58,29.74,15.34,30,14.88Z"/><path class="cls-1" d="M46.11,5.36A4.21,4.21,0,0,1,44,6.42a2.15,2.15,0,0,1,1.12.67,1.58,1.58,0,0,1,.39,1.06,2.42,2.42,0,0,1-.6,1.64,3.76,3.76,0,0,1-1.73,1.08,8.88,8.88,0,0,1-2.75.37q-.6,0-1,0a.57.57,0,0,1-.29.5,1.34,1.34,0,0,1-.7.17.76.76,0,0,1-.6-.19.81.81,0,0,1-.14-.57,33.25,33.25,0,0,1,.42-3.52A33,33,0,0,1,39,4a.6.6,0,0,1,.33-.42A1.56,1.56,0,0,1,40,3.5c.49,0,.73.14.73.41a1.24,1.24,0,0,1-.07.39A19.49,19.49,0,0,0,40,6.83a30.6,30.6,0,0,0-.45,3.06c.39,0,.7,0,.94,0A4.83,4.83,0,0,0,43,9.45a1.42,1.42,0,0,0,.79-1.24,1.1,1.1,0,0,0-.45-.89,2.63,2.63,0,0,0-1.51-.4.39.39,0,0,1-.33-.12.51.51,0,0,1-.1-.34,1,1,0,0,1,.15-.57A.62.62,0,0,1,42,5.66a5.28,5.28,0,0,0,1.54-.25,2.49,2.49,0,0,0,1.08-.64,1.35,1.35,0,0,0,.4-1,1.22,1.22,0,0,0-.68-1.09,4.27,4.27,0,0,0-2.11-.41,9.33,9.33,0,0,0-2.48.33,8,8,0,0,0-2,.84,1.38,1.38,0,0,1-.65.23.4.4,0,0,1-.33-.15.66.66,0,0,1-.11-.38,1,1,0,0,1,.13-.52,1.61,1.61,0,0,1,.6-.49,9.21,9.21,0,0,1,2.36-.9A11.74,11.74,0,0,1,42.53.94a5.8,5.8,0,0,1,3.24.73A2.24,2.24,0,0,1,46.83,3.6,2.43,2.43,0,0,1,46.11,5.36Z"/><path class="cls-1" d="M46.73,10.8a2.14,2.14,0,0,1-.45-1.42,3.82,3.82,0,0,1,.45-1.81,3.62,3.62,0,0,1,1.18-1.38,2.65,2.65,0,0,1,1.57-.53.46.46,0,0,1,.35.11.82.82,0,0,1,.15.36,3,3,0,0,1,.53,0c.39,0,.59.14.59.42a8.91,8.91,0,0,1-.18,1.2,11.14,11.14,0,0,0-.28,1.92.44.44,0,0,0,.09.29A.3.3,0,0,0,51,10a.94.94,0,0,0,.56-.29,12.78,12.78,0,0,0,.87-1,.45.45,0,0,1,.33-.17.27.27,0,0,1,.24.15.73.73,0,0,1,.09.39,1.09,1.09,0,0,1-.23.75,5.62,5.62,0,0,1-1,1,1.78,1.78,0,0,1-1.07.42,1.11,1.11,0,0,1-.72-.27,1.65,1.65,0,0,1-.5-.74,1.83,1.83,0,0,1-1.57,1A1.45,1.45,0,0,1,46.73,10.8Zm2.12-1A2,2,0,0,0,49.2,9l.44-2.21a1.46,1.46,0,0,0-.93.38,2.44,2.44,0,0,0-.67,1,3.25,3.25,0,0,0-.26,1.28.86.86,0,0,0,.15.55.52.52,0,0,0,.42.18A.68.68,0,0,0,48.85,9.82Z"/><path class="cls-1" d="M52.54,10.67a2.37,2.37,0,0,1-.65-1.75,3.59,3.59,0,0,1,.38-1.71,3,3,0,0,1,1-1.13,2.32,2.32,0,0,1,1.28-.39,1.36,1.36,0,0,1,1,.39,1.41,1.41,0,0,1,.36,1,1.51,1.51,0,0,1-.22.85.67.67,0,0,1-.58.35.6.6,0,0,1-.37-.11.36.36,0,0,1-.14-.3.74.74,0,0,1,0-.19c0-.07,0-.12,0-.16a1.05,1.05,0,0,0,.06-.33A.33.33,0,0,0,54.68,7a.28.28,0,0,0-.22-.09.73.73,0,0,0-.52.25,1.8,1.8,0,0,0-.39.67,3,3,0,0,0-.14.92c0,.93.4,1.39,1.21,1.39a2.19,2.19,0,0,0,1.07-.33,4.53,4.53,0,0,0,1.12-1,.41.41,0,0,1,.32-.17.29.29,0,0,1,.25.15.73.73,0,0,1,.09.39,1.18,1.18,0,0,1-.23.75A4,4,0,0,1,55.89,11a3.55,3.55,0,0,1-1.52.38A2.44,2.44,0,0,1,52.54,10.67Z"/><path class="cls-1" d="M62.09,10.57a.71.71,0,0,1-.27.54,1.19,1.19,0,0,1-.78.23,2,2,0,0,1-1.41-.53,1.9,1.9,0,0,1-.54-1.4.69.69,0,0,1,.48-.67,2.25,2.25,0,0,0,.75-.49.92.92,0,0,0,.23-.63.49.49,0,0,0-.09-.32.25.25,0,0,0-.22-.11,1,1,0,0,0-.72.47,5.14,5.14,0,0,0-.72,1.2,8.3,8.3,0,0,0-.53,1.52,1.79,1.79,0,0,1-.31.76.67.67,0,0,1-.54.2.61.61,0,0,1-.55-.27,2.07,2.07,0,0,1-.23-.83c0-.38-.06-.93-.06-1.66A20.91,20.91,0,0,1,57,4.73a11.59,11.59,0,0,1,1.11-3.37C58.56.45,59.15,0,59.84,0a1.08,1.08,0,0,1,.9.47,2.13,2.13,0,0,1,.34,1.23,5.31,5.31,0,0,1-.71,2.52,16.23,16.23,0,0,1-2.3,3c0,.42,0,.84,0,1.28a5.65,5.65,0,0,1,1.32-2.17,2.13,2.13,0,0,1,1.39-.68,1.23,1.23,0,0,1,1,.41,1.44,1.44,0,0,1,.36,1,2.35,2.35,0,0,1-.33,1.22,3,3,0,0,1-1.15,1,.68.68,0,0,0,.29.5,2.26,2.26,0,0,0,.71.23C61.92,10.1,62.09,10.28,62.09,10.57Zm-3-8.76a10.48,10.48,0,0,0-.51,1.66,22.57,22.57,0,0,0-.4,2.29,8.9,8.9,0,0,0,1.23-1.91A4.53,4.53,0,0,0,59.92,2a1.52,1.52,0,0,0-.09-.59c-.06-.13-.14-.2-.24-.2S59.29,1.39,59.11,1.81Z"/></g></g></g></svg>